<?xml version="1.0" standalone="no"?>
<!DOCTYPE svg PUBLIC "-//W3C//DTD SVG 20010904//EN"
 "http://www.w3.org/TR/2001/REC-SVG-20010904/DTD/svg10.dtd">
<svg version="1.0" xmlns="http://www.w3.org/2000/svg"
 width="512.000000pt" height="512.000000pt" viewBox="0 0 512.000000 512.000000"
 preserveAspectRatio="xMidYMid meet">
<metadata>
Created by potrace 1.14, written by Peter Selinger 2001-2017
</metadata>
<g transform="translate(0.000000,512.000000) scale(0.100000,-0.100000)"
fill="#000000" stroke="none">
<path d="M1368 5101 c-73 -24 -133 -59 -182 -108 -88 -87 -124 -170 -133 -299
-21 -303 265 -536 562 -459 361 94 454 559 159 795 -99 80 -282 111 -406 71z"/>
<path d="M1184 4041 c-49 -23 -110 -92 -124 -140 -6 -23 -10 -693 -10 -1879
l0 -1842 21 -45 c25 -54 89 -111 138 -125 20 -5 154 -10 299 -10 244 0 265 1
306 21 53 24 105 79 122 128 20 56 20 3714 0 3762 -20 49 -52 86 -100 117
l-41 27 -285 2 c-258 2 -289 0 -326 -16z"/>
<path d="M4363 3681 c-53 -25 -100 -72 -124 -125 -18 -40 -18 -102 -16 -1716
2 -1580 3 -1677 20 -1707 23 -43 67 -87 108 -110 30 -16 64 -18 309 -20 249
-2 279 -1 316 16 48 22 95 66 121 112 17 33 18 103 18 1720 l0 1686 -30 49
c-19 30 -49 60 -79 79 l-49 30 -276 3 c-256 2 -279 1 -318 -17z"/>
<path d="M142 2980 c-23 -11 -58 -36 -77 -56 -70 -74 -66 25 -63 -1439 3
-1460 -2 -1340 67 -1412 63 -67 68 -68 365 -71 306 -4 328 0 396 69 76 77 71
-30 68 1444 -3 1259 -4 1322 -21 1354 -23 41 -67 85 -110 108 -28 16 -66 18
-307 20 -254 2 -278 1 -318 -17z"/>
<path d="M3302 2580 c-53 -24 -98 -71 -123 -125 -18 -38 -18 -94 -16 -1165 l2
-1125 27 -46 c29 -50 85 -94 139 -109 19 -6 149 -10 289 -10 286 0 306 4 374
74 71 74 67 -4 64 1241 -3 1241 2 1143 -67 1214 -63 65 -69 66 -371 69 -257 2
-278 1 -318 -18z"/>
<path d="M2270 1789 c-50 -20 -102 -64 -128 -108 l-27 -46 0 -735 c0 -703 1
-737 19 -770 22 -41 67 -84 110 -108 27 -15 68 -17 316 -17 314 0 317 1 381
66 68 70 64 16 64 829 0 817 4 762 -67 832 -66 64 -85 68 -378 67 -150 0 -276
-5 -290 -10z"/>
</g>
</svg>
